<?xml version="1.0" encoding="UTF-8"?><svg id="a" xmlns="http://www.w3.org/2000/svg" viewBox="0 0 104.5 105.5"><path d="M70.2,83.36c1.88-3.45,3.2-7.26,3.84-11.3-4.92,5.74-11.99,9.52-19.92,10.07,0,0-.01,0-.02.02-3.25,2.38-6.81,4.12-10.52,5.21-11.63,3.41-24.67.47-33.83-8.86-.93-.95-1.79-1.94-2.59-2.96.1.2.2.4.3.59,5.98,11.76,16.29,20.86,28.79,25.1,1.28.15,2.58.23,3.89.23,12.95,0,24.21-7.3,30.06-18.07" style="fill:#fc0;"/><path d="M23.15,54.59c-.04-.66-.07-1.33-.07-2.01,0-7.45,2.71-14.26,7.17-19.47,0-.02,0-.04,0-.06,0-.06.02-.12.03-.18.03-.2.07-.4.11-.6,0-.05.02-.09.03-.14.04-.23.09-.47.14-.7,0,0,0,0,0-.01,2.85-13.66,13.4-24.47,26.88-27.15,3.39-.61,6.84-.75,10.27-.42-4.9-1.62-10.13-2.5-15.57-2.5-8.1,0-15.74,1.95-22.52,5.41-1,.81-1.98,1.69-2.9,2.63-12.09,12.32-13.26,31.5-3.58,45.19" style="fill:#304e9d;"/><path d="M21.94,70.98c3.39,1.91,7.13,3.25,11.09,3.91-5.63-5.01-9.35-12.21-9.88-20.29-9.68-13.69-8.52-32.88,3.58-45.19.93-.95,1.9-1.82,2.9-2.64-.13.06-.25.13-.38.19-11.64,6.07-20.66,16.63-24.84,29.43-.15,1.3-.23,2.63-.23,3.97,0,13.19,7.17,24.66,17.75,30.62" style="fill:#40bbed;"/><path d="M43.58,87.34c3.71-1.09,7.27-2.82,10.52-5.21,0,0,.01,0,.02-.02-.65.05-1.31.07-1.97.07-7.32,0-14.01-2.76-19.12-7.31-3.97-.66-7.7-2-11.09-3.91-10.58-5.96-17.75-17.43-17.75-30.62,0-1.34.08-2.67.23-3.97-.07.2-.13.41-.2.61-1.54,4.91-2.37,10.15-2.37,15.59,0,8.24,1.91,16.03,5.31,22.93.8,1.03,1.66,2.02,2.59,2.96,9.17,9.34,22.2,12.28,33.83,8.86" style="fill:#a2c617;"/><path d="M97.14,29.66c-.8-1.03-1.66-2.01-2.59-2.96-9.16-9.33-22.18-12.27-33.8-8.87-3.72,1.09-7.3,2.83-10.56,5.23.65-.04,1.3-.07,1.96-.07,7.32,0,14,2.75,19.11,7.3,3.97.66,7.71,2,11.1,3.91,10.58,5.96,17.75,17.43,17.75,30.62,0,1.34-.08,2.67-.23,3.97.08-.25.16-.5.24-.75,1.51-4.88,2.33-10.07,2.33-15.45,0-8.24-1.91-16.03-5.31-22.93" style="fill:#931c70;"/><path d="M57.44,4.28c-13.48,2.68-24.03,13.49-26.88,27.15,0,0,0,0,0,.01-.05.23-.1.47-.14.7,0,.05-.02.09-.03.14-.04.2-.07.4-.11.61,0,.06-.02.12-.03.18,0,.02,0,.04,0,.06,4.93-5.74,11.99-9.53,19.93-10.07,3.26-2.39,6.84-4.14,10.56-5.23,11.62-3.4,24.65-.46,33.8,8.87.93.95,1.79,1.94,2.59,2.96-.12-.25-.25-.5-.37-.74-5.99-11.69-16.28-20.73-28.73-24.95-.11-.04-.22-.07-.32-.11-3.43-.33-6.89-.19-10.27.42" style="fill:#2a245c;"/><path d="M86.25,61.25c-1.07-3.76-2.78-7.38-5.11-10.67.04.66.07,1.33.07,2.01,0,7.45-2.71,14.26-7.17,19.47-.64,4.04-1.97,7.85-3.84,11.3-5.85,10.78-17.11,18.07-30.06,18.07-1.32,0-2.62-.08-3.89-.23.18.06.36.12.54.18,4.84,1.58,10.01,2.44,15.36,2.44,8.09,0,15.74-1.95,22.51-5.4,1.01-.81,1.98-1.69,2.91-2.64,9.18-9.35,12.07-22.66,8.69-34.52" style="fill:#f18900;"/><path d="M82.36,34.2c-3.39-1.91-7.13-3.26-11.1-3.91,5.64,5.02,9.35,12.21,9.89,20.3,2.33,3.3,4.03,6.91,5.11,10.67,3.38,11.86.5,25.17-8.69,34.52-.93.95-1.9,1.83-2.91,2.64.35-.18.69-.36,1.04-.54,11.32-6.12,20.08-16.52,24.19-29.08.15-1.3.22-2.63.22-3.97,0-13.19-7.17-24.66-17.75-30.62" style="fill:#e5261f;"/></svg>