<?xml version="1.0" encoding="UTF-8"?><svg id="a" xmlns="http://www.w3.org/2000/svg" width="655.39" height="734.2" viewBox="0 0 655.39 734.2"><line x1="447.31" y1="150.42" x2="359.17" y2="140.08" fill="none" stroke="red" stroke-miterlimit="10" stroke-width="13"/><g><polyline points="202.6 94.78 168.12 172.58 110.02 239.55 196.19 262.69" fill="none" stroke="red" stroke-linecap="round" stroke-linejoin="round" stroke-width="13"/><polyline points="474.89 275 458.64 237.08 359.17 140.08 284.82 169.13 168.12 172.58 262.27 275 359.17 294.2" fill="none" stroke="red" stroke-linecap="round" stroke-linejoin="round" stroke-width="13"/><polyline points="244.44 108.08 284.82 172.09 359.66 226.25 458.64 239.55" fill="none" stroke="red" stroke-linecap="round" stroke-linejoin="round" stroke-width="13"/><line x1="333.07" y1="82.47" x2="262.27" y2="136.34" fill="none" stroke="red" stroke-linecap="round" stroke-linejoin="round" stroke-width="13"/><polyline points="351.54 344.43 364.59 223.79 267.09 267.12 206.53 380.37" fill="none" stroke="red" stroke-linecap="round" stroke-linejoin="round" stroke-width="13"/><line x1="110.02" y1="304.05" x2="152.36" y2="254.32" fill="none" stroke="red" stroke-linecap="round" stroke-linejoin="round" stroke-width="13"/><line x1="191.76" y1="310.45" x2="201.6" y2="213.45" fill="none" stroke="red" stroke-linecap="round" stroke-linejoin="round" stroke-width="13"/><line x1="273.49" y1="411.39" x2="247.34" y2="304.05" fill="none" stroke="red" stroke-linecap="round" stroke-linejoin="round" stroke-width="13"/></g><circle cx="333.07" cy="84.93" r="15.26" fill="red"/><circle cx="202.6" cy="94.78" r="13.29" fill="red"/><circle cx="244.44" cy="109.4" r="15.98" fill="red"/><circle cx="447.31" cy="150.42" r="15.76" fill="red"/><circle cx="359.66" cy="141.53" r="16.24" fill="red"/><circle cx="112.02" cy="236.12" r="16.97" fill="red"/><circle cx="283.6" cy="173.2" r="23.39" fill="red"/><circle cx="359.66" cy="226.25" r="20.68" fill="red"/><circle cx="458.64" cy="237.08" r="19.2" fill="red"/><circle cx="475.89" cy="280.19" r="13.29" fill="red"/><circle cx="357.17" cy="294.2" r="16.73" fill="red"/><circle cx="352.76" cy="345.89" r="13.04" fill="red"/><circle cx="105.6" cy="303.08" r="13.05" fill="red"/><circle cx="191.76" cy="311.45" r="13.05" fill="red"/><circle cx="273.49" cy="411.39" r="13.05" fill="red"/><circle cx="205.53" cy="382.34" r="18.69" fill="red"/><circle cx="265.75" cy="269.99" r="23.49" fill="red"/><circle cx="204.53" cy="221.14" r="15.58" fill="red"/><circle cx="191.76" cy="261.95" r="15.58" fill="red"/><path d="m646.47,402.89l-50.25-81c-5.25-5.25-5.8-11.88-2.25-15.75s26.62-15.38-23.6-139.96C517.62,35.36,380.34,8.47,380.34,8.47c0,0-210.04-49.71-323.66,91.73-113.63,141.44-21.3,300.83-21.3,300.83,35.64,64.7,59.67,66.18,74.64,106.92,37.22,101.29-4.42,187.01-4.42,187.01,0,0-5.51,10.55-10.76,22.55s.38,14.14.38,14.14c0,0,341.25,5.73,343.87,0s6.38-36.27,9.38-69.64,37.27-24.37,37.27-24.37c0,0,42.61,10.5,73.73,6,61.32-8.87,43.5-59.25,36.75-78s-4.5-20.25,8.62-31.12c13.12-10.88,3.75-16.87,2.25-18.75s-10.5-6.75-10.5-6.75c21.37-5.62,23.25-12.75,17.62-31.12-5.62-18.38-3.38-20.62,26.25-34.12s6-40.87,6-40.87Zm-233.06-.15c-2.23,19.55-1.39,66.59,52.13,90.71,0,0-104.87,8.16-150.78-62.27-9.94,1-20.06,1.52-30.34,1.52-133.13,0-241.06-86.48-241.06-193.15S151.28,46.39,284.41,46.39s241.06,86.48,241.06,193.15c0,68.66-44.71,128.94-112.07,163.19Z" fill="red"/></svg>