<?xml version="1.0" encoding="UTF-8"?><svg id="a" xmlns="http://www.w3.org/2000/svg" width="16" height="16" viewBox="0 0 16 16"><polyline points="16 .02 16 16.02 0 16.02 0 .02"/><line x1="10.68" y1="3.27" x2="8.78" y2="3.05" style="fill:none; stroke:#fff; stroke-miterlimit:10; stroke-width:.28px;"/><polyline points="5.41 2.07 4.67 3.75 3.42 5.19 5.28 5.68" style="fill:none; stroke:#fff; stroke-linecap:round; stroke-linejoin:round; stroke-width:.28px;"/><polyline points="11.27 5.95 10.92 5.13 8.78 3.05 7.18 3.67 4.67 3.75 6.7 5.95 8.78 6.36" style="fill:none; stroke:#fff; stroke-linecap:round; stroke-linejoin:round; stroke-width:.28px;"/><polyline points="6.31 2.36 7.18 3.73 8.79 4.9 10.92 5.19" style="fill:none; stroke:#fff; stroke-linecap:round; stroke-linejoin:round; stroke-width:.28px;"/><line x1="8.22" y1="1.81" x2="6.7" y2="2.97" style="fill:none; stroke:#fff; stroke-linecap:round; stroke-linejoin:round; stroke-width:.28px;"/><polyline points="8.62 7.44 8.9 4.85 6.8 5.78 5.5 8.21" style="fill:none; stroke:#fff; stroke-linecap:round; stroke-linejoin:round; stroke-width:.28px;"/><line x1="3.42" y1="6.57" x2="4.33" y2="5.5" style="fill:none; stroke:#fff; stroke-linecap:round; stroke-linejoin:round; stroke-width:.28px;"/><line x1="5.18" y1="6.71" x2="5.39" y2="4.62" style="fill:none; stroke:#fff; stroke-linecap:round; stroke-linejoin:round; stroke-width:.28px;"/><line x1="6.94" y1="8.88" x2="6.38" y2="6.57" style="fill:none; stroke:#fff; stroke-linecap:round; stroke-linejoin:round; stroke-width:.28px;"/><circle cx="8.22" cy="1.86" r=".33" style="fill:#fff;"/><circle cx="5.41" cy="2.07" r=".29" style="fill:#fff;"/><circle cx="6.31" cy="2.39" r=".34" style="fill:#fff;"/><circle cx="10.68" cy="3.27" r=".34" style="fill:#fff;"/><circle cx="8.79" cy="3.08" r=".35" style="fill:#fff;"/><circle cx="3.47" cy="5.11" r=".37" style="fill:#fff;"/><circle cx="7.16" cy="3.76" r=".5" style="fill:#fff;"/><circle cx="8.79" cy="4.9" r=".44" style="fill:#fff;"/><circle cx="10.92" cy="5.13" r=".41" style="fill:#fff;"/><circle cx="11.29" cy="6.06" r=".29" style="fill:#fff;"/><circle cx="8.74" cy="6.36" r=".36" style="fill:#fff;"/><circle cx="8.64" cy="7.47" r=".28" style="fill:#fff;"/><circle cx="3.33" cy="6.55" r=".28" style="fill:#fff;"/><circle cx="5.18" cy="6.73" r=".28" style="fill:#fff;"/><circle cx="6.94" cy="8.88" r=".28" style="fill:#fff;"/><circle cx="5.48" cy="8.26" r=".4" style="fill:#fff;"/><circle cx="6.77" cy="5.84" r=".51" style="fill:#fff;"/><circle cx="5.46" cy="4.79" r=".34" style="fill:#fff;"/><circle cx="5.18" cy="5.67" r=".34" style="fill:#fff;"/><path d="m14.96,8.7l-1.08-1.74c-.11-.11-.12-.26-.05-.34s.57-.33-.51-3.01C12.19.79,9.24.21,9.24.21c0,0-4.52-1.07-6.96,1.97-2.44,3.04-.46,6.47-.46,6.47.77,1.39,1.28,1.42,1.61,2.3.8,2.18-.1,4.02-.1,4.02,0,0-.12.23-.23.49s0,.3,0,.3c0,0,7.34.12,7.4,0s.14-.78.2-1.5.8-.52.8-.52c0,0,.92.23,1.59.13,1.32-.19.94-1.27.79-1.68s-.1-.44.19-.67c.28-.23.08-.36.05-.4s-.23-.15-.23-.15c.46-.12.5-.27.38-.67-.12-.4-.07-.44.56-.73s.13-.88.13-.88h0Zm-5.01,0c-.05.42-.03,1.43,1.12,1.95,0,0-2.26.18-3.24-1.34-.21.02-.43.03-.65.03-2.86,0-5.19-1.86-5.19-4.15S4.31,1.03,7.17,1.03s5.19,1.86,5.19,4.15c0,1.48-.96,2.77-2.41,3.51h0Z" style="fill:#fff;"/></svg>