<?xml version="1.0" encoding="UTF-8"?><svg id="a" xmlns="http://www.w3.org/2000/svg" width="16" height="16" viewBox="0 0 16 16"><path d="m3.2.02c-.36.04-.72.2-1,.43-.27.22-.52.61-.62.98l-.05.2v12.69l.05.2c.16.6.63,1.11,1.21,1.31.36.12.24.12,5.2.12s4.85,0,5.2-.12c.31-.1.66-.36.85-.61.15-.2.29-.47.35-.7l.06-.21V1.63l-.06-.21c-.21-.77-.83-1.3-1.64-1.4C12.51,0,3.46,0,3.2.02Zm5.16,2.52c.25.06.48.15.67.29.41.28.67.64.83,1.13.05.16.06.23.05.53,0,.32,0,.37-.07.56-.08.24-.15.38-.29.61-.06.09-.11.17-.11.17s.08.05.18.11c.73.4,1.36,1.17,1.63,2,.11.32.14.53.1.69-.03.14-.06.17-.22.26l-.11.06h-3.08c-3.49.01-3.21.03-3.38-.18-.13-.16-.14-.25-.06-.55.14-.58.32-.96.7-1.44.27-.33.71-.69,1.09-.87.16-.08.18-.09.12-.14-.07-.06-.26-.39-.32-.55-.17-.47-.17-1.02,0-1.45.25-.62.79-1.08,1.44-1.23.19-.04.63-.04.82,0Zm3.77,7.94c.44.12.44.82,0,.94-.12.03-8.15.03-8.27,0-.43-.12-.45-.78-.03-.93.08-.03.78-.03,4.15-.04,2.72,0,4.09,0,4.15.02Zm-.03,1.98c.24.05.38.25.36.5-.01.18-.08.31-.2.38l-.1.07H3.83l-.1-.07c-.12-.08-.2-.24-.2-.41,0-.26.14-.43.39-.49.14-.03,8.07-.02,8.19,0Z" style="fill:#fff;"/><path d="m7.57,3.55c-.25.09-.45.27-.58.53-.06.13-.07.16-.07.4s0,.28.08.43c.15.33.46.54.81.57.43.03.8-.18.99-.57.07-.15.08-.17.07-.41,0-.22,0-.27-.07-.39-.12-.27-.33-.46-.59-.55-.18-.06-.48-.06-.65,0Z" style="fill:#fff;"/><path d="m7.5,6.51c-.57.11-1.06.37-1.45.79-.16.17-.45.61-.43.65.02.03,4.55.02,4.55,0,0-.04-.14-.29-.27-.46-.16-.22-.48-.52-.71-.65-.49-.29-1.15-.42-1.69-.32Z" style="fill:#fff;"/></svg>