<svg xmlns="http://www.w3.org/2000/svg" viewBox="0 0 600 600" xmlns:xlink="http://www.w3.org/1999/xlink">
      <g id="kwzs7r-gradient" filter="url(#kwzs7r-blur)">
        <g>
          <path fill="#006EB6" d="M0,0l300,300v-424.4C182.9-124.4,76.8-76.9,0,0z"></path>
          <path fill="#28348A" d="M300-124.4V300L600,0C523.2-76.9,417.1-124.4,300-124.4z"></path>
          <path fill="#E20613" d="M600,600c76.8-76.8,124.3-182.9,124.3-300H300L600,600z"></path>
          <path fill="#DA0078" d="M300,300h424.4c0-117.1-47.5-223.2-124.3-300L300,300z"></path>
          <path fill="#5BC4F1" d="M-124.4,300H300L0,0C-76.9,76.8-124.4,182.9-124.4,300z"></path>
          <path fill="#A1C517" d="M0,600l300-300h-424.4C-124.4,417.1-76.9,523.2,0,600z"></path>
          <path fill="#F08800" d="M300,724.4c117.1,0,223.2-47.5,300-124.3L300,300V724.4z"></path>
          <path fill="#FFCB00" d="M300,724.4V300L0,600C76.8,676.9,182.9,724.4,300,724.4z"></path>
        </g>
      </g>
    </svg>

    