<?xml version="1.0" encoding="UTF-8"?>
<svg id="Layer_1" xmlns="http://www.w3.org/2000/svg" xmlns:xlink="http://www.w3.org/1999/xlink" version="1.1" viewBox="0 0 603.3 600">
  <!-- Generator: Adobe Illustrator 30.4.0, SVG Export Plug-In . SVG Version: 2.1.4 Build 226)  -->
  <defs>
    <style>
      .st0 {
        mask: url(#mask);
      }

      .st1 {
        fill: #da0078;
      }

      .st2 {
        fill: #ffcb00;
      }

      .st3 {
        filter: url(#b);
      }

      .st4 {
        fill: #a1c517;
      }

      .st5 {
        fill: #e20613;
      }

      .st6 {
        fill: #fff;
      }

      .st7 {
        fill: #f08800;
      }

      .st8 {
        fill: #28348a;
      }

      .st9 {
        fill: #5bc4f1;
      }

      .st10 {
        fill: #006eb6;
      }
    </style>
    <mask id="mask" x="-209.3" y="-209.3" width="1019" height="1019" maskUnits="userSpaceOnUse">
      <g id="a">
        <path class="st6" d="M455.8,541.6l130.1-225.1c5.4-9.4,5.5-20.9,0-30.3L456,61c-2-3.5-4.7-6.5-7.8-8.8-1.1-1.3-2.4-2.5-3.9-3.3-2-1.1-4.2-1.8-6.4-1.9-2.6-.8-5.4-1.2-8.2-1.2H169.6c-10.8,0-20.8,5.7-26.2,15L13.4,285.9c-5.4,9.4-5.4,20.9,0,30.3l129.9,225.2c5.4,9.4,15.4,15.2,26.2,15.2h260c10.9,0,20.9-5.7,26.3-15M210.4,453.7l-.4-304.1.4-.2,265.6,151.6-265.6,152.7h0ZM181,426.7l-133.8-126,133.5-124.1.3,250.1ZM247.9,466l219.3-126-42,181.1-177.3-55.1h0ZM247.9,137l178.3-56.6,41.1,181.9-219.4-125.3h0ZM209.8,118.3l-23.5-42.3h156.5l-133,42.3h0ZM184.4,133l-103,95.8,79.7-137.8,23.3,42h0ZM184.6,470.4l-23.1,41.9-80.5-139.4,103.6,97.5h0ZM210,485l133.1,41.3h-155.8c0,0,22.7-41.3,22.7-41.3ZM470.5,455.6l32.4-139.7h48.4c0-.1-80.8,139.7-80.8,139.7h0ZM551.2,286.5h-48.2c0,.1-31-137.2-31-137.2l79.2,137.2Z"/>
      </g>
    </mask>
    <filter id="b">
      <feGaussianBlur in="SourceGraphic" stdDeviation="40"/>
    </filter>
  </defs>
  <g class="st0">
    <g class="st3">
      <path class="st10" d="M0,0l300,300V-124.4c-117.1,0-223.2,47.5-300,124.4Z"/>
      <path class="st8" d="M300-124.4v424.4L600,0c-76.8-76.9-182.9-124.4-300-124.4Z"/>
      <path class="st5" d="M600,600c76.8-76.8,124.3-182.9,124.3-300h-424.3l300,300Z"/>
      <path class="st1" d="M300,300h424.4c0-117.1-47.5-223.2-124.3-300l-300.1,300Z"/>
      <path class="st9" d="M-124.4,300h424.4L0,0c-76.9,76.8-124.4,182.9-124.4,300Z"/>
      <path class="st4" d="M0,600l300-300H-124.4c0,117.1,47.5,223.2,124.4,300Z"/>
      <path class="st7" d="M300,724.4c117.1,0,223.2-47.5,300-124.3l-300-300.1v424.4Z"/>
      <path class="st2" d="M300,724.4v-424.4L0,600c76.8,76.9,182.9,124.4,300,124.4Z"/>
    </g>
  </g>
</svg>