<?xml version="1.0" encoding="UTF-8"?><svg id="a" xmlns="http://www.w3.org/2000/svg" width="16" height="16" viewBox="0 0 16 16"><path d="m15.83,3.34l-1,.91-4.2,3.83,4.2,3.76.97.87h0c.11-.22.17-.47.17-.72v-7.97c0-.23-.05-.46-.14-.68h0Z" style="fill:#fff;"/><path d="m9.79,8.84l-.64.58c-.32.29-.73.45-1.16.45s-.84-.16-1.16-.45l-.63-.58-4.12,3.71-1.08.97c.22.11.47.17.72.17h12.53c.26,0,.51-.06.75-.18l-1.08-.96-4.14-3.71Z" style="fill:#fff;"/><path d="m5.37,8.07L1.17,4.2l-.97-.9c-.11.22-.17.47-.17.72v7.97c0,.26.06.51.18.75l.96-.87,4.2-3.79Z" style="fill:#fff;"/><path d="m7.61,8.58c.1.1.24.15.39.15s.28-.06.39-.15l6.67-6.08h0c-.25-.13-.52-.19-.79-.2H1.74c-.26,0-.52.06-.75.18l1.05.96,5.58,5.14Z" style="fill:#fff;"/></svg>