<?xml version="1.0" encoding="UTF-8"?><svg id="a" xmlns="http://www.w3.org/2000/svg" viewBox="0 0 51.02 51.02"><path d="M15.78,10.1c-.74,0-1.4.35-1.84.88h3.67c-.44-.53-1.09-.88-1.84-.88Z" style="fill:none; stroke-width:0px;"/><path d="M15.78,14.86c.74,0,1.4-.35,1.84-.88h-3.67c.44.53,1.09.88,1.84.88Z" style="fill:none; stroke-width:0px;"/><path d="M10.4,12.48h-5.34,5.34c0-.52.1-1.02.24-1.5h-5.58c-.83,0-1.5.67-1.5,1.5s.67,1.5,1.5,1.5h5.58c-.14-.48-.24-.98-.24-1.5h0Z" style="stroke-width:0px;"/><path d="M45.96,10.98h-25.04c.14.48.24.98.24,1.5h24.8-24.8c0,.52-.1,1.02-.24,1.5h25.04c.83,0,1.5-.67,1.5-1.5s-.67-1.5-1.5-1.5Z" style="stroke-width:0px;"/><path d="M15.78,10.1c.74,0,1.4.35,1.84.88h3.31c-.65-2.24-2.7-3.88-5.14-3.88s-4.49,1.65-5.14,3.88h3.31c.44-.53,1.09-.88,1.84-.88Z" style="stroke-width:0px;"/><path d="M15.78,14.86c-.74,0-1.4-.35-1.84-.88h-3.31c.65,2.24,2.7,3.88,5.14,3.88s4.49-1.65,5.14-3.88h-3.31c-.44.53-1.09.88-1.84.88Z" style="stroke-width:0px;"/><path d="M13.4,12.48c0-.57.21-1.09.55-1.5h-3.31c-.14.48-.24.98-.24,1.5h3Z" style="stroke-width:0px;"/><path d="M21.17,12.48h-3c0,.57-.21,1.09-.55,1.5h3.31c.14-.48.24-.98.24-1.5h0Z" style="stroke-width:0px;"/><path d="M13.4,12.48h0s-3,0-3,0h0c0,.52.1,1.02.24,1.5h3.31c-.34-.41-.55-.93-.55-1.5Z" style="stroke-width:0px;"/><path d="M18.17,12.48h3c0-.52-.1-1.02-.24-1.5h-3.31c.34.41.55.93.55,1.5Z" style="stroke-width:0px;"/><path d="M37.02,22.52c-.74,0-1.4.35-1.84.88h3.67c-.44-.53-1.09-.88-1.84-.88Z" style="fill:none; stroke-width:0px;"/><path d="M37.02,27.29c.74,0,1.4-.35,1.84-.88h-3.67c.44.53,1.09.88,1.84.88Z" style="fill:none; stroke-width:0px;"/><path d="M31.63,24.9H5.06h26.57c0-.52.1-1.02.24-1.5H5.06c-.83,0-1.5.67-1.5,1.5s.67,1.5,1.5,1.5h26.81c-.14-.48-.24-.98-.24-1.5h0Z" style="stroke-width:0px;"/><path d="M45.96,23.4h-3.8c.14.48.24.98.24,1.5h3.57-3.57c0,.52-.1,1.02-.24,1.5h3.8c.83,0,1.5-.67,1.5-1.5s-.67-1.5-1.5-1.5Z" style="stroke-width:0px;"/><path d="M37.02,27.29c-.74,0-1.4-.35-1.84-.88h-3.31c.65,2.24,2.7,3.88,5.14,3.88s4.49-1.65,5.14-3.88h-3.31c-.44.53-1.09.88-1.84.88Z" style="stroke-width:0px;"/><path d="M37.02,22.52c.74,0,1.4.35,1.84.88h3.31c-.65-2.24-2.7-3.88-5.14-3.88s-4.49,1.65-5.14,3.88h3.31c.44-.53,1.09-.88,1.84-.88Z" style="stroke-width:0px;"/><path d="M34.63,24.9c0-.57.21-1.09.55-1.5h-3.31c-.14.48-.24.98-.24,1.5h3Z" style="stroke-width:0px;"/><path d="M34.63,24.9h0s-3,0-3,0h0c0,.52.1,1.02.24,1.5h3.31c-.34-.41-.55-.93-.55-1.5Z" style="stroke-width:0px;"/><path d="M42.4,24.9h-3c0,.57-.21,1.09-.55,1.5h3.31c.14-.48.24-.98.24-1.5h0Z" style="stroke-width:0px;"/><path d="M39.4,24.9h3c0-.52-.1-1.02-.24-1.5h-3.31c.34.41.55.93.55,1.5Z" style="stroke-width:0px;"/><path d="M25.51,34.94c-.74,0-1.4.35-1.84.88h3.67c-.44-.53-1.09-.88-1.84-.88Z" style="fill:none; stroke-width:0px;"/><path d="M25.51,39.71c.74,0,1.4-.35,1.84-.88h-3.67c.44.53,1.09.88,1.84.88Z" style="fill:none; stroke-width:0px;"/><path d="M45.96,35.83h-15.31c.14.48.24.98.24,1.5h0s15.07,0,15.07,0h-15.07c0,.52-.1,1.02-.24,1.5h15.31c.83,0,1.5-.67,1.5-1.5s-.67-1.5-1.5-1.5Z" style="stroke-width:0px;"/><path d="M5.06,37.33h15.07c0-.52.1-1.02.24-1.5H5.06c-.83,0-1.5.67-1.5,1.5s.67,1.5,1.5,1.5h15.31c-.14-.48-.24-.98-.24-1.5H5.06Z" style="stroke-width:0px;"/><path d="M25.51,39.71c-.74,0-1.4-.35-1.84-.88h-3.31c.65,2.24,2.7,3.88,5.14,3.88s4.49-1.65,5.14-3.88h-3.31c-.44.53-1.09.88-1.84.88Z" style="stroke-width:0px;"/><path d="M25.51,34.94c.74,0,1.4.35,1.84.88h3.31c-.65-2.24-2.7-3.88-5.14-3.88s-4.49,1.65-5.14,3.88h3.31c.44-.53,1.09-.88,1.84-.88Z" style="stroke-width:0px;"/><path d="M23.13,37.33h-3c0,.52.1,1.02.24,1.5h3.31c-.34-.41-.55-.93-.55-1.5Z" style="stroke-width:0px;"/><path d="M27.89,37.33c0,.57-.21,1.09-.55,1.5h3.31c.14-.48.24-.98.24-1.5h-3Z" style="stroke-width:0px;"/><path d="M20.13,37.33h3c0-.57.21-1.09.55-1.5h-3.31c-.14.48-.24.98-.24,1.5h0Z" style="stroke-width:0px;"/><path d="M27.89,37.33h0s3,0,3,0h0c0-.52-.1-1.02-.24-1.5h-3.31c.34.41.55.93.55,1.5Z" style="stroke-width:0px;"/></svg>