<svg width="18" height="16" xmlns="http://www.w3.org/2000/svg" xmlns:xlink="http://www.w3.org/1999/xlink" xml:space="preserve" overflow="hidden"><defs><clipPath id="clip0"><rect x="0" y="0" width="18" height="16"/></clipPath><clipPath id="clip1"><rect x="0" y="0" width="18" height="15"/></clipPath><clipPath id="clip2"><rect x="0" y="0" width="18" height="15"/></clipPath></defs><g clip-path="url(#clip0)"><g clip-path="url(#clip1)"><g clip-path="url(#clip2)"><path d="M12.1832 10.4257C12.2428 9.93422 12.2875 9.44272 12.2875 8.93634 12.2875 8.42995 12.2428 7.93845 12.1832 7.44695L14.7003 7.44695C14.8194 7.92355 14.8939 8.4225 14.8939 8.93634 14.8939 9.45018 14.8194 9.94913 14.7003 10.4257M10.8651 14.5662C11.3119 13.7396 11.6545 12.846 11.8928 11.9151L14.0896 11.9151C13.3747 13.1439 12.2353 14.0971 10.8651 14.5662M10.6789 10.4257 7.19375 10.4257C7.11928 9.93422 7.07459 9.44272 7.07459 8.93634 7.07459 8.42995 7.11928 7.931 7.19375 7.44695L10.6789 7.44695C10.7459 7.931 10.7981 8.42995 10.7981 8.93634 10.7981 9.44272 10.7459 9.93422 10.6789 10.4257M8.93634 14.8641C8.31825 13.9705 7.8193 12.98 7.51398 11.9151L10.3587 11.9151C10.0534 12.98 9.55443 13.9705 8.93634 14.8641M5.95755 5.95755 3.78306 5.95755C4.49051 4.72137 5.63735 3.76815 7.00014 3.30644 6.55332 4.13306 6.21821 5.02669 5.95755 5.95755M3.78306 11.9151 5.95755 11.9151C6.21821 12.846 6.55332 13.7396 7.00014 14.5662 5.63735 14.0971 4.49051 13.1439 3.78306 11.9151M3.1724 10.4257C3.05324 9.94913 2.97879 9.45018 2.97879 8.93634 2.97879 8.4225 3.05324 7.92355 3.1724 7.44695L5.68946 7.44695C5.62989 7.93845 5.58521 8.42995 5.58521 8.93634 5.58521 9.44272 5.62989 9.93422 5.68946 10.4257M8.93634 3.00113C9.55443 3.89476 10.0534 4.89264 10.3587 5.95755L7.51398 5.95755C7.8193 4.89264 8.31825 3.89476 8.93634 3.00113M14.0896 5.95755 11.8928 5.95755C11.6545 5.02669 11.3119 4.13306 10.8651 3.30644 12.2353 3.7756 13.3747 4.72137 14.0896 5.95755M8.93634 1.48939C4.81817 1.48939 1.48939 4.84051 1.48939 8.93634 1.48939 13.0471 4.82562 16.3833 8.93634 16.3833 13.0471 16.3833 16.3833 13.0471 16.3833 8.93634 16.3833 4.82562 13.0471 1.48939 8.93634 1.48939Z" fill="#82BAA4" fill-rule="nonzero" fill-opacity="1" transform="matrix(1.00712 0 0 1 0 -1.41141)"/></g></g></g></svg>