<?xml version="1.0" encoding="UTF-8"?><svg id="a" xmlns="http://www.w3.org/2000/svg" viewBox="0 0 658.33 174.69"><path d="M174.71,111.76l.32-4.87c0-13.24-9.28-24.08-20.62-24.08h0c-10.95,0-19.98,10.11-20.59,22.73-.01.31-.36,0-.57,6.22h41.45Z" style="fill:#86c7db;"/><path d="M95.4,56.79s-8.25,1.17-7.84-13.4" style="fill:#fced17; stroke:#fced17; stroke-linejoin:round; stroke-width:1.52px;"/><path d="M115.38,56.79s8.25,1.17,7.84-13.4" style="fill:#fced17; stroke:#fced17; stroke-linejoin:round; stroke-width:1.52px;"/><path d="M85.04,89.23v-6.14c0-13.24,9.28-24.08,20.62-24.08h0c11.34,0,20.62,10.83,20.62,24.08v6.14" style="fill:#2890af;"/><path d="M36.56,102.24v-6.14c0-13.24,9.28-24.08,20.62-24.08h0c11.34,0,20.62,10.83,20.62,24.08v6.14" style="fill:#2890af;"/><ellipse cx="105.66" cy="38.53" rx="18.22" ry="22.08" style="fill:#ffeed9; stroke:#ffeed9; stroke-miterlimit:10; stroke-width:1.52px;"/><ellipse cx="122.82" cy="38.53" rx="2.39" ry="4.86" style="fill:#ffeed9; stroke:#ffeed9; stroke-miterlimit:10; stroke-width:1.52px;"/><ellipse cx="87.56" cy="38.53" rx="2.39" ry="4.86" style="fill:#ffeed9; stroke:#ffeed9; stroke-miterlimit:10; stroke-width:1.52px;"/><path d="M87.33,34.67s11.35-2.23,13.47-8.91c4.35,4.35,14.21,4.12,14.21,4.12,0,0,2.86,6.87,8.96,4.98.36-10.59-4.19-20.45-17.02-20.45s-19.62,8.67-19.62,20.25Z" style="fill:#fced17; stroke:#fced17; stroke-linejoin:round; stroke-width:1.52px;"/><path d="M135.65,57.77s-1.01,22.88-3.18,25.04,13.47-.87,13.47-.87" style="fill:#7a7571; stroke:#7a7571; stroke-linejoin:round; stroke-width:1.52px;"/><path d="M172.55,57.77s1.01,22.88,3.18,25.04c2.16,2.16-13.47-.87-13.47-.87" style="fill:#7a7571; stroke:#7a7571; stroke-linejoin:round; stroke-width:1.52px;"/><path d="M172.64,57.47c-.15,0-.29.04-.43.09-1.8-9.9-9.08-17.31-17.79-17.31s-16.1,7.51-17.83,17.52c-.93.67-1.6,2.45-1.6,4.56s.67,3.89,1.6,4.56c1.73,10.01,9.06,17.52,17.83,17.52s15.99-7.41,17.79-17.31c.14.05.28.09.43.09,1.32,0,2.39-2.18,2.39-4.86s-1.07-4.86-2.39-4.86Z" style="fill:#6e401c;"/><path d="M56.86,31.21c-8.71,0-15.99,7.41-17.79,17.31-.14-.05-.28-.09-.43-.09-1.32,0-2.39,2.18-2.39,4.86s1.07,4.86,2.39,4.86c.15,0,.29-.04.43-.09,1.8,9.9,9.08,17.31,17.79,17.31,10.07,0,18.22-9.89,18.22-22.08s-8.16-22.08-18.22-22.08Z" style="fill:#f0d1b6;"/><path d="M135.65,57.77s11.35-2.23,13.47-8.91c4.35,4.35,14.21,4.12,14.21,4.12,0,0,2.86,6.87,8.96,4.98.36-10.59-4.19-20.45-17.02-20.45s-19.62,8.67-19.62,20.25Z" style="fill:#7a7571; stroke:#7a7571; stroke-linejoin:round; stroke-width:1.52px;"/><path d="M38.64,48.43s23.99-4.1,28.09-8.19c1.93,3.4,8.36,7.66,8.36,7.66,0,0,.54-12.88-5.67-14.93-2.69-.89-.76-3.9-.76-3.9,0,0-29.12-2.81-30.01,19.36Z" style="fill:#2b190e; stroke:#2b190e; stroke-linejoin:round; stroke-width:1.52px;"/><text transform="translate(62.74 128.9)" style="fill:#256cb0; font-family:Tahoma, Tahoma; font-size:16px;"><tspan x="0" y="0">M</tspan><tspan x="12.33" y="0" style="letter-spacing:0em;">i</tspan><tspan x="16" y="0">ld aphasia</tspan><tspan x="15.35" y="19.2">G</tspan><tspan x="26.03" y="19.2" style="letter-spacing:0em;">r</tspan><tspan x="31.72" y="19.2">oup 1</tspan></text><text transform="translate(485.2 128.9)" style="fill:#256cb0; font-family:Tahoma, Tahoma; font-size:16px;"><tspan x="0" y="0">Mode</tspan><tspan x="38.28" y="0" style="letter-spacing:-.02em;">r</tspan><tspan x="43.77" y="0">ate aphasia</tspan><tspan x="34.07" y="19.2">G</tspan><tspan x="44.75" y="19.2" style="letter-spacing:0em;">r</tspan><tspan x="50.44" y="19.2">oup 3</tspan></text><path d="M474.39,50.19s-1.04,23.5-3.26,25.73,13.84-.89,13.84-.89" style="fill:#904a21; stroke:#904a21; stroke-linejoin:round; stroke-width:1.56px;"/><path d="M512.3,50.19s1.04,23.5,3.26,25.73-13.84-.89-13.84-.89" style="fill:#904a21; stroke:#904a21; stroke-linejoin:round; stroke-width:1.56px;"/><path d="M473.04,104.06c.12-18.56,10.63-28.14,20.63-28.14h0c9.98,0,20.15,9.39,20.62,28.07" style="fill:#256cb0;"/><path d="M512.4,49.88c-.15,0-.3.04-.44.09-1.85-10.17-9.33-17.79-18.28-17.79s-16.54,7.72-18.32,18c-.95.69-1.64,2.52-1.64,4.69s.69,4,1.64,4.69c1.78,10.28,9.31,18,18.32,18s16.43-7.61,18.28-17.79c.14.05.29.09.44.09,1.36,0,2.46-2.24,2.46-4.99s-1.1-4.99-2.46-4.99Z" style="fill:#ffebdb;"/><path d="M474.39,50.19s11.66-2.29,13.84-9.15c4.47,4.47,14.6,4.24,14.6,4.24,0,0,2.94,7.06,9.21,5.12.37-10.88-4.3-21.01-17.49-21.01s-20.16,8.91-20.16,20.81Z" style="fill:#904a21; stroke:#904a21; stroke-linejoin:round; stroke-width:1.56px;"/><path d="M573.99,50.19s-.42,9.52-1.3,17.01c-.13,1.07-.26,2.1-.4,3.05-.14.61-.3,2.1-.46,2.61-.16.16-.34,1.51-.52,1.95-.18-.07-.37,1.7-.58,1.1-.37-.02-.23.78.25.71.49,1.43,1.32,1.02,2.35.05,1.02-.19,2.24,1.87,3.49-.37,1.25-1.15,2.52.69,3.67-.55,1.15.33,2.17.87,2.9-.5.73-.58,1.18-.75,1.18-.22" style="fill:#c2572c; stroke:#c2572c; stroke-linejoin:round; stroke-width:1.56px;"/><path d="M611.9,50.19s.7,15.73,2.17,22.67c.16.77.34,1.42.52,1.95.18.22.37.8.58,1.1.37.56.23.93-.25.71-.49-.2-1.32.23-2.35.05-1.02-.32-2.24-.37-3.49-.37-1.25-1.79-2.52-.91-3.67-.55-1.15-.54-2.17.61-2.9-.5-.73-.18-1.18-.03-1.18-.22" style="fill:#c2572c; stroke:#c2572c; stroke-linejoin:round; stroke-width:1.56px;"/><path d="M572.36,103.95l.28-8.89c2.19-10.93,10.63-19.14,20.63-19.14h0c9.98,0,18.41,8.17,20.62,19.07v8.11" style="fill:#256cb0;"/><path d="M612,49.88c-.15,0-.3.04-.44.09-1.85-10.17-9.33-17.79-18.28-17.79s-16.54,7.72-18.32,18c-.95.69-1.64,2.52-1.64,4.69s.69,4,1.64,4.69c1.78,10.28,9.31,18,18.32,18s16.43-7.61,18.28-17.79c.14.05.29.09.44.09,1.36,0,2.46-2.24,2.46-4.99s-1.1-4.99-2.46-4.99Z" style="fill:#f0d1b6;"/><path d="M573.99,50.19c0,.26.24.8.65-.15.41.15,1-.24,1.71-.47.71-.93,1.53,1.46,2.4-.83.87-.07,1.8.03,2.72-1.23.92-.19,1.83-2.48,2.66-1.67.84.61,1.61-.7,2.24-2.15.64-1.11,1.14-1.94,1.45-2.67.64-.53,1.39.74,2.22,1.64.82-.78,1.72.68,2.63,1.15.92.05,1.86.83,2.77.75.92,1.56,1.81-2.14,2.64.43.83,1.55,1.58.02,2.23.2.64-2.06,1.17.57,1.54.06.37.35.57.44.57,0,0-1.26.12,2.5.36.72.24-.14.6.96,1.08,1.64.48.6,1.09-1.22,1.82,1.79.73.96,1.59,1.14,2.58,1.18.99.03,2.11-1.73,3.36-.22.03-.97.03-2.85-.02-2.7-.04-1.02-.12-.96-.24-2.64-.12-.86-.27-1.71-.47-2.54-1.78-7.44-6.88-13.14-16.76-13.14s-16.61,5.27-19.05,13.12c-.24.78-.45,1.6-.61,2.43-.16,1.41-.29,1.63-.37,2.57-.08,1.92-.12.86-.12,2.69Z" style="fill:#c2572c; stroke:#c2572c; stroke-linejoin:round; stroke-width:1.56px;"/><path d="M523.73,109.13v-3.81c0-9.53,8.67-17.33,19.27-17.33h0c10.6,0,19.27,7.83,19.27,15.47v5.67" style="fill:#5c87b0;"/><path d="M543,48.2c-8.14,0-14.94,6.93-16.62,16.18-.13-.05-.27-.08-.41-.08-1.24,0-2.24,2.03-2.24,4.54s1,4.54,2.24,4.54c.14,0,.28-.03.41-.08,1.68,9.25,8.48,16.18,16.62,16.18,9.41,0,17.03-9.24,17.03-20.64s-7.63-20.64-17.03-20.64Z" style="fill:#6e401c;"/><path d="M525.97,64.3s22.42-3.83,26.25-7.66c1.8,3.18,7.82,7.16,7.82,7.16,0,0,.5-12.04-5.3-13.96-2.51-.83-.71-3.65-.71-3.65,0,0-27.22-2.62-28.05,18.1Z" style="fill:#2b190e; stroke:#2b190e; stroke-linejoin:round; stroke-width:1.42px;"/><text transform="translate(283.33 128.9)" style="fill:#256cb0; font-family:Tahoma, Tahoma; font-size:16px;"><tspan x="0" y="0">M</tspan><tspan x="12.33" y="0" style="letter-spacing:0em;">i</tspan><tspan x="16" y="0">ld aphasia</tspan><tspan x="15.35" y="19.2">G</tspan><tspan x="26.03" y="19.2" style="letter-spacing:0em;">r</tspan><tspan x="31.72" y="19.2">oup 2</tspan></text><path d="M397.98,104.26l.35-5.12c0-13.92-10.02-25.31-22.28-25.31h0c-11.83,0-21.59,10.63-22.24,23.89-.02.32-.39,0-.61,6.54h44.78Z" style="fill:#2890af;"/><path d="M312.3,56.6s-8.92,1.23-8.47-14.08" style="stroke:#000; stroke-linejoin:round; stroke-width:.74px;"/><path d="M333.89,56.6s8.92,1.23,8.47-14.08" style="stroke:#000; stroke-linejoin:round; stroke-width:.74px;"/><path d="M301.1,90.7v-6.45c0-13.92,10.02-25.31,22.28-25.31h0c12.25,0,22.28,11.39,22.28,25.31v6.45" style="fill:#86c7db;"/><path d="M248.73,103.81v-6.45c0-13.92,10.02-25.31,22.28-25.31h0c12.25,0,22.28,11.39,22.28,25.31v6.45" style="fill:#2890af;"/><ellipse cx="323.38" cy="37.41" rx="19.69" ry="23.21" style="fill:#ffeed9; stroke:#ffeed9; stroke-miterlimit:10; stroke-width:.74px;"/><ellipse cx="341.92" cy="37.41" rx="2.59" ry="5.11" style="fill:#ffeed9; stroke:#ffeed9; stroke-miterlimit:10; stroke-width:.74px;"/><ellipse cx="303.82" cy="37.41" rx="2.59" ry="5.11" style="fill:#ffeed9; stroke:#ffeed9; stroke-miterlimit:10; stroke-width:.74px;"/><path d="M303.58,33.36s12.26-2.34,14.55-9.36c4.7,4.57,15.35,4.33,15.35,4.33,0,0,3.09,7.22,9.68,5.23.38-11.13-4.53-21.49-18.39-21.49s-21.19,9.12-21.19,21.29Z" style="stroke:#000; stroke-linejoin:round; stroke-width:.74px;"/><path d="M355.78,47.51s-1.09,24.05-3.43,26.32c-2.34,2.27,14.55-.91,14.55-.91" style="stroke:#000; stroke-linejoin:round; stroke-width:.74px;"/><path d="M395.65,47.51s1.09,24.05,3.43,26.32-14.55-.91-14.55-.91" style="stroke:#000; stroke-linejoin:round; stroke-width:.74px;"/><path d="M395.75,47.19c-.16,0-.31.04-.47.09-1.95-10.41-9.81-18.2-19.22-18.2s-17.39,7.9-19.27,18.42c-1,.7-1.72,2.57-1.72,4.79s.72,4.09,1.72,4.79c1.87,10.52,9.79,18.42,19.27,18.42s17.28-7.79,19.22-18.2c.15.05.31.09.47.09,1.43,0,2.59-2.29,2.59-5.11s-1.16-5.11-2.59-5.11Z" style="fill:#6e401c;"/><path d="M270.66,29.16c-9.41,0-17.28,7.79-19.22,18.2-.15-.05-.31-.09-.47-.09-1.43,0-2.59,2.29-2.59,5.11s1.16,5.11,2.59,5.11c.16,0,.31-.04.47-.09,1.95,10.41,9.81,18.2,19.22,18.2,10.87,0,19.69-10.39,19.69-23.21s-8.82-23.21-19.69-23.21Z" style="fill:#f0d1b6;"/><path d="M355.78,47.51s12.26-2.34,14.55-9.36c4.7,4.57,15.35,4.33,15.35,4.33,0,0,3.09,7.22,9.68,5.23.38-11.13-4.53-21.49-18.39-21.49s-21.19,9.12-21.19,21.29Z" style="stroke:#000; stroke-linejoin:round; stroke-width:.74px;"/><path d="M250.97,47.26s25.92-4.31,30.34-8.61c2.08,3.57,9.04,8.05,9.04,8.05,0,0,.58-13.54-6.13-15.7-2.91-.93-.82-4.1-.82-4.1,0,0-31.47-2.95-32.42,20.35Z" style="fill:#2b190e; stroke:#2b190e; stroke-linejoin:round; stroke-width:.74px;"/></svg>