<?xml version="1.0" encoding="UTF-8"?><svg id="a" xmlns="http://www.w3.org/2000/svg" viewBox="0 0 212.89 159.6"><defs><style>.b,.c{stroke:#4f4e4a;stroke-linecap:round;stroke-linejoin:round;stroke-width:8.44px;}.b,.d{fill:none;}.c,.e{fill:#4f4e4a;}.f{fill:#fff;}.f,.g{fill-rule:evenodd;}.h{fill:#2790b0;}.i{fill:#276cb0;}.j{fill:#666460;}.k,.g{fill:#f5f5f5;}</style></defs><path class="i" d="M189.45,81.42c0,9.45-7.66,17.12-17.12,17.12s-17.12-7.66-17.12-17.12,7.66-17.12,17.12-17.12,17.12,7.66,17.12,17.12"/><path class="g" d="M169.22,73.42h.4c.87.07,1.51.37,2.09.78.33.24.72.41,1.22.23.36-.13.61-.33.88-.5.28-.17.6-.31.96-.4.8-.19,1.73,0,2.33.23,1.28.51,2.25,1.4,3.11,2.33.84.91,1.55,2.06,2.47,2.98.46.46.9.93,1.39,1.34.48.41,1.08.68,1.51,1.21v.16c-.08.22-.65.11-.91.05-.89-.2-1.64-.63-2.28-1.03-.94-.57-1.86-1.14-2.87-1.54-1.05-.42-2.41-.78-3.69-.46-.58.14-1.03.46-1.57.63-.56.18-1.23.28-1.95.22-.68-.06-1.25-.21-1.79-.43-.54-.23-1-.42-1.71-.5-1.39-.15-2.65.21-3.59.75-.91.51-1.79,1.16-2.8,1.62-.48.22-1.02.44-1.57.63-.26.09-.57.18-.89.22-.26.03-.64.11-.86-.16v-.1c.05-.12.1-.19.18-.25.46-.34.92-.59,1.34-.89.43-.31.79-.69,1.18-1.08.73-.73,1.43-1.55,2.12-2.37,1.34-1.59,2.71-3.38,5.31-3.68"/><path class="g" d="M173.82,89.42h-1.34s-.01-.02-.03-.02c-2.26-.05-4.09-.53-5.65-1.26-1.66-.78-2.63-1.72-3.91-3-.56-.56-1.12-1.17-1.77-1.69-.17-.13-.63-.34-.61-.55.02-.31,1.05-.42,1.34-.48,1.52-.34,2.77-.92,4.27-1.21,1.07-.2,2.36-.22,3.34-.02,1.01.21,1.93.57,3.15.51,1.08-.05,2.12-.32,3.18-.48,1.06-.16,2.32-.12,3.34.12.97.22,1.88.59,2.82.84.48.13.89.2,1.52.3.41.06,1.36.16,1.36.48,0,.14-.43.37-.6.48-1.52,1.05-2.63,2.51-3.99,3.64-1.63,1.36-3.64,2.18-6.42,2.32"/><path class="h" d="M145.55,81.42c0,9.45-7.66,17.12-17.12,17.12s-17.12-7.66-17.12-17.12,7.66-17.12,17.12-17.12,17.12,7.66,17.12,17.12"/><path class="k" d="M136.75,71.95c1.2,1.11,1.04,2.81-.09,3.94l-1.11,1.11s.84-1.28-.9-2.96c-1.52-1.52-2.96-.87-2.96-.87l1.17-1.17c1.04-1.07,2.87-1.07,3.88-.06M134.63,77.93l-11.77,11.77-5.02,1.22-.09-.09,1.31-5.02,11.77-11.71c.21-.06.72-.21,1.43-.06l-12.49,12.49-.36,1.31,1.43,1.43,1.34-.36.6-.57.06-1.34-.96-.96,11.44-11.44q.18.15.36.36c1.7,1.67.93,2.96.93,2.96"/><path class="h" d="M57.75,81.42c0,9.45-7.66,17.12-17.12,17.12s-17.12-7.66-17.12-17.12,7.66-17.12,17.12-17.12,17.12,7.66,17.12,17.12"/><path class="f" d="M42.38,79.4c.81-.48.96-2.04,1.38-3.44.47-1.58,1.08-4.22,2.83-2.68.34,3.01-1.36,4.65-1.53,7.41,1.69-.17,2.21-5.4,4.43-4.05.28,3.01-1.58,4.32-2.45,6.5-.46,1.15-.36,2.25-.61,3.52-.73,3.7-5.74,5.5-9.09,3.29-1.42-.94-2.69-2.78-3.97-4.2-.86-.96-1.47-1.22-2.29-2.37-.25-.34-.8-.97-.76-1.38.05-.55.67-.87,1.07-.92,1.33-.15,2.44,1.24,3.13,1.99.29.31.55.83.99.84.97.03,1.34-1.9,1.22-3.06-.11-1.12-.71-2.46-1.22-3.67-.44-1.04-2.02-4.81.08-4.81,1.14,0,1.73,2.21,2.06,3.06.52,1.33.94,2.62,1.53,3.51.53-.48.31-1.68.31-2.75,0-1.73-.35-4.77.99-5.04.91-.19,1.28.44,1.38,1.3.22,1.95-.15,5.26.53,6.95"/><path class="h" d="M101.65,81.42c0,9.45-7.66,17.12-17.12,17.12s-17.12-7.66-17.12-17.12,7.66-17.12,17.12-17.12,17.12,7.66,17.12,17.12"/><rect class="k" x="75.93" y="70.36" width="15.26" height="19.75"/><rect class="h" x="78.11" y="72.87" width="10.9" height="14.74"/><rect class="h" x="79.37" y="88.02" width="16.44" height="2.31" transform="translate(-37.4 88) rotate(-44.98)"/><path class="k" d="M97.22,81.63c.89.83.78,2.1-.07,2.95l-.83.83s.63-.96-.67-2.21c-1.14-1.14-2.21-.65-2.21-.65l.87-.87c.78-.8,2.14-.8,2.9-.04M95.63,86.09l-8.8,8.8-3.75.91-.07-.07.98-3.75,8.8-8.75c.16-.04.54-.16,1.07-.04l-9.33,9.33-.27.98,1.07,1.07,1-.27.45-.42.05-1-.72-.71,8.55-8.55q.13.11.27.27c1.27,1.25.69,2.21.69,2.21"/><rect class="d" x="22.13" y="32.64" width="180.53" height="25.28"/><path class="e" d="M24.47,32.64h6.17l6.07,17.06,6.17-17.06h6.07v23.12h-4.84v-15.44l-5.57,15.44h-3.87l-5.47-15.31v15.31h-4.74v-23.12Z"/><path class="e" d="M53.61,32.64h6.17l6.07,17.06,6.17-17.06h6.07v23.12h-4.84v-15.44l-5.57,15.44h-3.87l-5.47-15.31v15.31h-4.74v-23.12Z"/><path class="e" d="M96.93,50.64h-8.94l-1.8,5.12h-5.27l8.54-23.12h6.2l8.47,23.12h-5.44l-1.77-5.12ZM92.43,37.11l-3.17,9.42h6.37l-3.2-9.42Z"/><path class="e" d="M109.6,37.07h-7.27v-4.44h19.84v4.44h-7.3v18.68h-5.27v-18.68Z"/><path class="j" d="M140.55,55.56c-.49.15-1.02.28-1.6.39-.58.11-1.2.16-1.87.16-1.85,0-3.12-.5-3.83-1.51-.71-1-.88-2.38-.5-4.13l1.93-8.84h-2.73l.57-2.69h2.73l1-4.53h3.47l-1,4.53h4.44l-.57,2.69h-4.43l-1.93,8.9c-.18.82-.14,1.49.1,2.01.25.52.79.78,1.63.78.44,0,.83-.04,1.17-.11.33-.08.64-.16.93-.24l.5,2.59Z"/><path class="j" d="M147.37,50.85c.23.83.68,1.51,1.33,2.02.66.52,1.57.78,2.75.78,1.27,0,2.22-.24,2.87-.71.64-.47,1.11-1.14,1.4-2.01h3.33c-.49,1.64-1.35,2.94-2.58,3.9-1.23.96-3.01,1.44-5.32,1.44-1.62,0-2.96-.3-4.02-.89-1.06-.59-1.86-1.39-2.4-2.38-.54-.99-.87-2.08-.98-3.27-.11-1.19-.03-2.37.23-3.56.31-1.4.86-2.69,1.65-3.87.79-1.18,1.82-2.11,3.08-2.82,1.27-.7,2.8-1.05,4.6-1.05,1.53,0,2.78.29,3.74.86.96.57,1.67,1.32,2.15,2.23.48.92.76,1.91.85,2.98s.02,2.1-.2,3.09l-.13.58h-12.61c-.07.95.02,1.84.25,2.67ZM148.52,43.48c-.45.76-.78,1.55-1,2.4h9.2c.18-1.51-.06-2.71-.7-3.59-.64-.88-1.65-1.33-3-1.33-1.09,0-2,.23-2.73.7-.73.46-1.32,1.07-1.77,1.83Z"/><path class="j" d="M166.79,32.64h3.5l-5.04,23.12h-3.5l5.04-23.12Z"/><path class="j" d="M174.45,50.85c.23.83.68,1.51,1.33,2.02.66.52,1.57.78,2.75.78,1.27,0,2.22-.24,2.87-.71.64-.47,1.11-1.14,1.4-2.01h3.33c-.49,1.64-1.35,2.94-2.58,3.9-1.23.96-3.01,1.44-5.32,1.44-1.62,0-2.96-.3-4.02-.89-1.06-.59-1.86-1.39-2.4-2.38-.54-.99-.87-2.08-.98-3.27-.11-1.19-.03-2.37.23-3.56.31-1.4.86-2.69,1.65-3.87.79-1.18,1.82-2.11,3.08-2.82,1.27-.7,2.8-1.05,4.6-1.05,1.53,0,2.78.29,3.74.86.96.57,1.67,1.32,2.15,2.23.48.92.76,1.91.85,2.98s.02,2.1-.2,3.09l-.13.58h-12.61c-.07.95.02,1.84.25,2.67ZM175.6,43.48c-.45.76-.78,1.55-1,2.4h9.2c.18-1.51-.06-2.71-.7-3.59-.64-.88-1.65-1.33-3-1.33-1.09,0-2,.23-2.73.7-.73.46-1.32,1.07-1.77,1.83Z"/><rect class="b" x="12.54" y="13.48" width="186.93" height="101.93" rx="7.22" ry="7.22"/><path class="c" d="M126.03,125.61h-40.05c0,12.45-8.77,23.91-8.77,23.91h57.59s-8.77-11.46-8.77-23.91Z"/><rect class="b" x="12.54" y="117.59" width="186.93" height="8.02" rx="2.03" ry="2.03"/><polygon class="e" points="8.31 105.33 8.31 120.6 15.54 119.02 8.31 105.33"/><polygon class="e" points="203.69 121.81 203.69 107.42 198.05 115.12 203.69 121.81"/></svg>