<?xml version="1.0" encoding="UTF-8"?>
<svg id="Layer_1" data-name="Layer 1" xmlns="http://www.w3.org/2000/svg" version="1.1" viewBox="0 0 15.4 20">
  <defs>
    <style>
      .cls-1 {
        fill: #231f20;
      }

      .cls-1, .cls-2 {
        stroke-width: 0px;
      }

      .cls-3 {
        stroke: #231f20;
        stroke-miterlimit: 10;
      }

      .cls-3, .cls-2 {
        fill: #fff;
      }
    </style>
  </defs>
  <g>
    <path class="cls-2" d="M1,.5h13.4c.3,0,.5.2.5.5v18c0,.3-.2.5-.5.5H1c-.3,0-.5-.2-.5-.5V1c0-.3.2-.5.5-.5Z"/>
    <path class="cls-1" d="M14.4,1h0s0,18,0,18H1s0-18,0-18h13.4M14.4,0H1C.4,0,0,.4,0,1v18c0,.6.4,1,1,1h13.4c.6,0,1-.4,1-1V1c0-.6-.4-1-1-1h0Z"/>
  </g>
  <line class="cls-3" x1="2.1" y1="2.5" x2="13.4" y2="2.5"/>
  <line class="cls-3" x1="2.1" y1="4.9" x2="13.4" y2="4.9"/>
  <line class="cls-3" x1="2.1" y1="7.3" x2="13.4" y2="7.3"/>
  <line class="cls-3" x1="2.1" y1="9.7" x2="13.4" y2="9.7"/>
  <line class="cls-3" x1="2.1" y1="12.1" x2="13.4" y2="12.1"/>
  <line class="cls-3" x1="2.1" y1="14.5" x2="13.4" y2="14.5"/>
  <line class="cls-3" x1="2.1" y1="16.9" x2="13.4" y2="16.9"/>
  <rect class="cls-2" x="5.3" y="4.9" width="4.8" height="3.6"/>
  <g>
    <path class="cls-1" d="M4.8,15.5c-.7,0-1.3-.6-1.3-1.3v-4c0-.7.6-1.3,1.3-1.3h4.5v-1.7c0-.9-.7-1.6-1.6-1.6s-1.6.7-1.6,1.6-.2.4-.4.4h-1c-.2,0-.4-.2-.4-.4,0-1.9,1.5-3.4,3.4-3.4s3.4,1.5,3.4,3.4v1.8c.5.2.8.6.8,1.2v4c0,.7-.6,1.3-1.3,1.3h-5.8Z"/>
    <path class="cls-2" d="M7.7,4.3c1.7,0,3,1.3,3,3v2h0c.4,0,.8.4.8.9v4c0,.5-.4.9-.9.9h-5.8c-.5,0-.9-.4-.9-.9v-4c0-.5.4-.9.9-.9h4.9v-2c0-1.1-.9-2-2-2s-2,.9-2,2h-1c0-1.7,1.3-3,3-3M7.7,3.5c-2.1,0-3.7,1.7-3.7,3.7s.3.8.7.8h1c.4,0,.8-.3.8-.8,0-.7.6-1.3,1.3-1.3s1.3.6,1.3,1.3v1.3h-4.1c-.9,0-1.6.7-1.6,1.6v4c0,.9.7,1.6,1.6,1.6h5.8c.9,0,1.6-.7,1.6-1.6v-4c0-.6-.3-1.1-.8-1.4v-1.5c0-2.1-1.7-3.7-3.7-3.7h0Z"/>
  </g>
</svg>