<svg width="17" height="16" xmlns="http://www.w3.org/2000/svg" xmlns:xlink="http://www.w3.org/1999/xlink" xml:space="preserve" overflow="hidden"><defs><clipPath id="clip0"><rect x="0" y="0" width="17" height="16"/></clipPath><clipPath id="clip1"><rect x="0" y="0" width="17" height="15"/></clipPath><clipPath id="clip2"><rect x="0" y="-1" width="17" height="16"/></clipPath></defs><g clip-path="url(#clip0)"><g clip-path="url(#clip1)"><g clip-path="url(#clip2)"><path d="M9.58826 6.40425 8.21522 6.40425 8.21522 10.9975 9.63436 10.9975C11.6528 10.9975 12.117 9.46314 12.117 8.69924 12.117 7.4579 11.3235 6.40425 9.58826 6.40425ZM8.42924 1.02073C4.33645 1.02073 1.02073 4.33645 1.02073 8.42924 1.02073 12.522 4.33645 15.8378 8.42924 15.8378 12.522 15.8378 15.8378 12.522 15.8378 8.42924 15.8378 4.33645 12.522 1.02073 8.42924 1.02073ZM6.01571 11.7976 5.1234 11.7976 5.1234 5.59754 6.01571 5.59754 6.01571 11.7976ZM5.5712 4.89291C5.24852 4.89291 4.9851 4.63279 4.9851 4.30681 4.9851 3.98084 5.24523 3.72072 5.5712 3.72072 5.89388 3.72072 6.1573 3.98084 6.1573 4.30681 6.154 4.6295 5.89388 4.89291 5.5712 4.89291ZM9.74302 11.8042 7.3229 11.8042 7.3229 5.59754 9.72984 5.59754C12.0215 5.59754 13.0291 7.234 13.0291 8.69924 13.0291 10.2929 11.7878 11.8042 9.74302 11.8042Z" fill="#82BAA4" fill-rule="nonzero" fill-opacity="1" transform="matrix(1.00839 0 0 1 0 -0.958742)"/></g></g></g></svg>