<?xml version="1.0" encoding="UTF-8"?><svg id="a" xmlns="http://www.w3.org/2000/svg" viewBox="0 0 17.33 21.76"><rect x=".71" y="2.17" width="14.4" height="19" rx=".78" ry=".78" style="fill:#fff; stroke:#231f20; stroke-linecap:round; stroke-linejoin:round;"/><path d="M2.93.5h13.4c.3,0,.5.2.5.5v18c0,.3-.2.5-.5.5H2.93c-.3,0-.5-.2-.5-.5V1c0-.3.2-.5.5-.5Z" style="fill:#fff; stroke-width:0px;"/><line x1="4.03" y1="2.94" x2="15.33" y2="2.94" style="fill:none; stroke:#231f20; stroke-miterlimit:10;"/><line x1="4.03" y1="5.73" x2="15.33" y2="5.73" style="fill:none; stroke:#231f20; stroke-miterlimit:10;"/><line x1="4.03" y1="8.52" x2="15.33" y2="8.52" style="fill:none; stroke:#231f20; stroke-miterlimit:10;"/><line x1="4.03" y1="11.31" x2="15.33" y2="11.31" style="fill:none; stroke:#231f20; stroke-miterlimit:10;"/><line x1="4.03" y1="14.11" x2="8.57" y2="14.11" style="fill:none; stroke:#231f20; stroke-miterlimit:10;"/><line x1="4.03" y1="16.9" x2="8.57" y2="16.9" style="fill:none; stroke:#231f20; stroke-miterlimit:10;"/><path d="M16.05,19.5H3.22c-.43,0-.78-.35-.78-.78V1.28c0-.43.35-.78.78-.78h9.49l4.13,3.99v14.23c0,.43-.35.78-.78.78Z" style="fill:none; stroke:#231f20; stroke-linecap:round; stroke-linejoin:round;"/><rect x="9.88" y="13.48" width="4.94" height="3.72" style="fill:none; stroke:#231f20; stroke-linecap:round; stroke-linejoin:round;"/><polygon points="12.71 .5 12.71 4.49 16.83 4.49 12.71 .5" style="fill:#fff; stroke:#231f20; stroke-linecap:round; stroke-linejoin:round;"/></svg>